<svg id="SvgjsSvg1001" xmlns="http://www.w3.org/2000/svg" viewBox="0 0 288 288"><defs><style>.cls-1{fill:#fff;}</style></defs><title>bsk</title><g id="SvgjsG1008"><path class="cls-1" d="M9.15,36.4A9.21,9.21,0,1,1,9.15,18H34a42.84,42.84,0,0,1,22.41,5.84,34.43,34.43,0,0,1,15,21.33c.75,3.3,1.55,6.61,2.34,9.91H278.85a9.19,9.19,0,0,1,9.21,9.16v0a9.37,9.37,0,0,1-.45,2.86l-24,96.38a9.19,9.19,0,0,1-8.91,7H104.61c3.37,12.21,6.47,18.75,11,21.89,5.32,3.56,14.79,3.82,30.47,3.56h106a9.21,9.21,0,0,1,0,18.42H146.33c-19.38.35-31.36-.21-40.92-6.66S90.5,190,85.32,169.53L53.66,50a16.85,16.85,0,0,0-7-10.52,25.31,25.31,0,0,0-12.91-3H9.15ZM224.94,225a22.5,22.5,0,1,1-22.5,22.5h0A22.5,22.5,0,0,1,224.94,225Zm-98.67,0a22.5,22.5,0,1,1-22.5,22.5h0A22.5,22.5,0,0,1,126.27,225ZM182.75,73.46V107h76.05l8.27-33.47Zm0,51.89v26.74h64.9l6.61-26.74Zm-18.49,26.74V125.35H92.82q3.68,13.36,7,26.74Zm0-45.16V73.46H78.55c3,11.16,6,22.31,9.16,33.47Z"/></g></svg>