<svg id="Layer_1" data-name="Layer 1" xmlns="http://www.w3.org/2000/svg" viewBox="0 0 390.4 120.51"><defs><style>.cls-1{fill:#7f8c8d;}.cls-2{fill:#cc3129;}</style></defs><title>logo</title><path class="cls-1" d="M70.8,107.91V63.51h8.3v44.4Z"/><path class="cls-1" d="M90.3,103.91a15.71,15.71,0,1,1,10.8,4.3A15,15,0,0,1,90.3,103.91Zm10.8-2.9a7.31,7.31,0,0,0,5.5-2.3,8,8,0,0,0,2.1-5.6,8.37,8.37,0,0,0-2.1-5.7,7.61,7.61,0,0,0-10.9,0,8.65,8.65,0,0,0,0,11.3A6.5,6.5,0,0,0,101.1,101Z"/><path class="cls-1" d="M139.6,97.41V78.31h8.3v29.6h-8.3v-2.7a10.32,10.32,0,0,1-7.1,2.7c-3.7,0-6.6-1.1-8.6-3.4a11.57,11.57,0,0,1-3-7.8V78.41h8.3v16.3a6.53,6.53,0,0,0,1.5,4.6,5.8,5.8,0,0,0,4.5,1.7C137,100.71,138.4,99.61,139.6,97.41Z"/><path class="cls-1" d="M163.4,89.11v18.8h-8.3V79.21l8.3-.9V81a10.32,10.32,0,0,1,7.1-2.7c3.7,0,6.6,1.1,8.6,3.4a11.57,11.57,0,0,1,3,7.8v18.3h-8.3V91.51a6.53,6.53,0,0,0-1.5-4.6,5.8,5.8,0,0,0-4.5-1.7C166.1,85.41,164.6,86.71,163.4,89.11Z"/><path class="cls-1" d="M216.9,79.21v26.3a15.07,15.07,0,0,1-3.7,10.4,12.86,12.86,0,0,1-9.3,4.4l-1.8.2c-5.7-.1-10.2-1.8-13.3-4.9l3.8-4.4a14.66,14.66,0,0,0,7.9,2.7c3.2,0,5.3-.7,6.4-2.2a8.09,8.09,0,0,0,1.7-4.9v-1.5a11.86,11.86,0,0,1-7.7,2.7c-4.5,0-7.9-1.3-10.2-4s-3.4-6.3-3.4-10.8c0-4.3,1.2-7.9,3.7-10.6s6-4.1,10.5-4.1c3.4.2,5.7,1.1,7.1,2.7v-2.7Zm-8.3,16.6V91c-.4-3.3-2.5-5.3-6.2-5.8-4.9.2-7.6,2.6-8,7.4.2,5.5,2.9,8.4,8,8.6C206.1,100.51,208.2,98.71,208.6,95.81Z"/><path class="cls-1" d="M221.2,93.11a14.48,14.48,0,0,1,4.1-10.6,14.24,14.24,0,0,1,10.6-4.1,13.85,13.85,0,0,1,10.4,4.1,14.85,14.85,0,0,1,3.8,10.6v3H229.7a5.19,5.19,0,0,0,2.1,3.7,6.68,6.68,0,0,0,4.1,1.3,12.14,12.14,0,0,0,7.4-2.4l4.7,4.7c-2.2,3-6.2,4.4-12.1,4.4a14.05,14.05,0,0,1-14.7-14.7Zm19-6.7a6.68,6.68,0,0,0-4.1-1.3,6.48,6.48,0,0,0-4.1,1.3,4.33,4.33,0,0,0-1.8,3.7H242A5.07,5.07,0,0,0,240.2,86.41Z"/><path class="cls-2" d="M288.9,84.51a12.86,12.86,0,0,1,6.2,10.1c-.4,8.4-4.9,12.8-13.4,13.3h-25V63.61h23.5c7.5.4,11.4,4.8,11.8,13C292,80.51,290.9,83.21,288.9,84.51Zm-23.3-3.2H278c3.6-.1,5.4-1.9,5.5-5.5-.1-2.2-1.9-3.3-5.4-3.4H265.6Zm0,19.7h14.5c4.2-.1,6.3-2.2,6.4-6.4-.1-2.8-2.2-4.3-6.3-4.4H265.6Z"/><path class="cls-2" d="M301.6,107.91l17.7-44.4h8.9l17.7,44.3h-9.4l-2.7-6.8H313.7l-2.7,6.8h-9.4ZM324,75.41l-6.7,16.9h13.3Z"/><path class="cls-2" d="M379.3,88.51l11.1,19.3H380.2l-10.6-18.3h-8.2v18.3h-8.9V63.41h19.3c10.4,0,15.5,4.3,15.5,12.8C387.4,82.71,384.7,86.81,379.3,88.51Zm-17.9-7.2h12.4c3.6-.1,5.4-1.7,5.5-4.9-.1-2.9-1.9-4.4-5.4-4.6H361.4Z"/><path class="cls-2" d="M0,3.51v60H60v-60Zm55,55H5v-50H55Z"/></svg>